<svg xmlns="http://www.w3.org/2000/svg" xmlns:xlink="http://www.w3.org/1999/xlink" xml:space="preserve" width="70.1874mm" height="34.539mm" style="shape-rendering:geometricPrecision; text-rendering:geometricPrecision; image-rendering:optimizeQuality; fill-rule:evenodd; clip-rule:evenodd" viewBox="0 0 6878.54 3384.91"> <defs>  <style type="text/css">   <![CDATA[    .str0 {stroke:black;stroke-width:17.29;stroke-miterlimit:22.9256}    .fil0 {fill:#FEFEFE}    .fil1 {fill:#FEFEFE;fill-rule:nonzero}   ]]>  </style> </defs> <g id="Layer_x0020_1">  <metadata id="CorelCorpID_0Corel-Layer"></metadata>  <path class="fil0" d="M2984.25 1832.1c0,0 38.78,35.62 106.89,35.62 67.07,0 109.52,-46.1 109.52,-105.84 0,-107.42 -150.38,-106.89 -150.38,-167.67 0,-24.11 23.05,-39.83 42.44,-39.83 51.35,0 85.93,28.82 85.93,28.82l13.1 -52.4c-18.34,-11.53 -52.4,-26.21 -97.46,-26.21 -65.5,0 -106.37,46.64 -106.37,103.24 0,102.7 148.82,105.84 148.82,165.58 0,23.59 -20.43,43.49 -49.26,43.49 -55.02,0 -97.99,-43.49 -97.99,-43.49l-5.23 58.69zm646.88 -326.46c-95.37,0 -167.67,79.66 -167.67,183.93 0,100.08 58.16,178.15 160.87,178.15 95.36,0 168.72,-79.65 168.72,-184.44 0,-103.76 -53.97,-177.64 -161.92,-177.64zm-95.37 180.79c0,-74.93 37.21,-130.48 92.75,-130.48 55.55,0 92.23,55.55 92.23,130.48 0,74.93 -36.68,130.47 -92.23,130.47 -55.54,0 -92.75,-55.54 -92.75,-130.47zm553.09 -121.57l0 296.07 73.88 0 -5.76 -45.06 0 -108.47 97.46 0 13.1 -51.88 -110.57 0 0 -92.75 125.24 0 0 -51.87 -200.69 0 7.33 53.97zm432.56 -1.04l110.04 0 0 297.1 73.88 0 -5.76 -45.06 0 -252.04 113.18 0 0 -52.93 -291.34 0 0 52.93zm1024.68 -52.93l-65.5 0 -81.21 219.55 -11.01 41.4 -7.33 -41.4 -77.03 -219.55 -74.93 0 38.25 103.23 -46.11 116.33 -11.01 41.4 -7.33 -41.4 -77.03 -219.55 -83.84 0 34.06 64.98 104.27 281.39 47.69 10.47 69.17 -173.43 61.3 162.97 47.69 10.47 139.91 -356.84zm280.08 350.04l187.07 0 13.09 -51.88 -132.05 0 0 -101.65 97.47 0 13.1 -51.88 -110.58 0 0 -92.75 125.25 0 0 -51.87 -200.7 0 7.34 53.97 0 296.07zm564.6 -301.3c7.86,-0.53 15.2,-1.05 21.49,-1.05 38.25,0 55.02,11.01 55.02,42.44 0,18.87 -8.39,38.78 -16.77,50.83 -6.81,-0.52 -18.87,-3.15 -59.74,-3.15l0 -89.07zm-75.45 -48.74l7.34 53.97 0 296.07 100.08 0c90.65,0 129.43,-46.64 129.43,-110.05 0,-37.72 -22.01,-68.11 -62.89,-86.98 17.3,-15.73 41.4,-44.54 41.4,-73.36 0,-56.59 -48.73,-82.27 -121.56,-82.27l-93.8 2.63zm75.45 188.12l19.39 0c52.92,0 72.84,22.53 72.84,53.98 0,35.62 -21.48,57.11 -59.74,57.11l-32.49 0 0 -111.09z"></path>  <path class="fil0" d="M4356.42 2044.72c-34.08,0 -49.22,28.72 -49.22,60.12 0,27.62 16.7,55.67 45.87,55.67 27.62,0 43.42,-15.36 43.42,-15.36l-3.12 -16.93c0,0 -16.03,15.14 -34.96,15.14 -21.61,0 -30.96,-20.49 -31.41,-40.53l62.13 0 5.13 -5.79c-0.45,-13.8 -3.12,-52.32 -37.86,-52.32zm-2.68 14.47c15.37,0 19.6,17.81 20.27,29.39l-45.87 0c3.12,-16.03 10.47,-29.39 25.61,-29.39zm177.83 98.42l-2.22 -16.22 0 -69.99c0,-17.78 -14.47,-26.25 -29.18,-26.25 -14.7,0 -30.51,7.12 -39.87,17.37l0 -16.7 -21.6 2.45 2.9 20.45 0 88.89 20.93 0 -2.23 -16.66 0 -61.99c0,0 10.69,-16.44 34.08,-16.44 13.81,0 16.26,9.99 16.26,31.11l0 63.99 20.93 0zm144.42 0l-2.22 -16.22 0 -69.99c0,-17.78 -14.47,-26.25 -29.18,-26.25 -14.7,0 -30.51,7.12 -39.87,17.37l0 -73.04 -21.6 2.49 2.9 20.56 0 145.08 20.93 0 -2.23 -16.66 0 -61.99c0,0 10.69,-16.44 34.08,-16.44 13.81,0 16.26,9.99 16.26,31.11l0 63.99 20.93 0zm57.78 -80.98c0,0 11.13,-16.55 31.63,-16.55 9.13,0 16.7,5.93 16.7,23.6l0 8.02c-36.74,0 -62.57,16.47 -62.57,41.2 0,16.47 13.58,27.61 28.72,27.61 13.81,0 29.4,-9.12 35.41,-18.26 0.23,9.8 6.46,18.26 6.46,18.26l20.71 -2.89c0,0 -10.02,-11.8 -10.02,-25.16l0 -58.91c0,-20.82 -16.03,-28.39 -33.4,-28.39 -29.4,0 -43.65,17.11 -43.65,17.11l10.02 14.37zm22.72 67.85c-11.8,0 -16.93,-7.8 -16.93,-14.93 0,-22.71 36.74,-23.38 42.53,-23.6l0 24.72c-4.45,5.12 -15.81,13.81 -25.61,13.81zm190.97 13.13l-2.23 -16.22 0 -69.99c0,-17.78 -14.47,-26.25 -29.18,-26.25 -14.7,0 -30.51,7.12 -39.86,17.37l0 -16.7 -21.61 2.45 2.9 20.45 0 88.89 20.93 0 -2.22 -16.66 0 -61.99c0,0 10.69,-16.44 34.07,-16.44 13.81,0 16.26,9.99 16.26,31.11l0 63.99 20.94 0zm131.94 -97.32c-8.24,-10.02 -20.27,-15.58 -36.3,-15.58 -34.08,0 -51.44,28.72 -51.44,60.12 0,27.62 16.7,55.67 45.87,55.67 27.62,0 41.87,-15.36 41.87,-15.36l-3.12 -16.93c0,0 -14.47,15.14 -33.41,15.14 -22.05,0 -31.62,-21.6 -31.62,-42.08 0,-20.94 11.13,-40.98 31.39,-40.98 8.92,0 17.82,4.67 24.94,14.92l11.81 -14.92zm83.84 -15.58c-34.08,0 -49.22,28.72 -49.22,60.12 0,27.62 16.7,55.67 45.87,55.67 27.62,0 43.42,-15.36 43.42,-15.36l-3.12 -16.93c0,0 -16.03,15.14 -34.96,15.14 -21.61,0 -30.96,-20.49 -31.41,-40.53l62.13 0 5.13 -5.79c-0.45,-13.8 -3.13,-52.32 -37.86,-52.32zm-2.68 14.47c15.37,0 19.6,17.81 20.27,29.39l-45.87 0c3.12,-16.03 10.47,-29.39 25.61,-29.39zm246.3 -14.03l-19.59 2.9 -28.07 71.26 -4.67 16.25 -2.89 -16.25 -26.06 -74.16 -21.82 2.9 9.79 18.48 30.52 90.18 -4.68 12.25c-6.23,16.26 -17.14,23.61 -28.72,23.61 -3.78,0 -7.58,-0.89 -11.36,-2.22l3.12 18.92c4.01,1.56 7.8,2.45 11.58,2.45 15.81,0 30.95,-12.25 40.31,-35.41l52.55 -131.17zm27.28 59.46c0,3.56 1.12,55.89 46.99,55.89 34.29,0 54.33,-28.05 54.33,-60.11 0,-37.87 -20.04,-55.68 -46.77,-55.68 -33.85,0 -54.56,25.38 -54.56,59.9zm20.49 -2.01c0,-23.37 11.35,-42.97 30.06,-42.97 18.71,0 30.29,19.6 30.29,42.97 0,23.39 -11.58,42.98 -30.29,42.98 -18.71,0 -30.06,-19.59 -30.06,-42.98zm197.41 38.52c0,10.25 6.46,19.38 6.46,19.38l20.72 -2.89c0,0 -10.03,-11.8 -10.03,-25.16l0 -86.85 -21.6 2.45 2.89 20.48 0 57.9c0,0 -10.68,16.7 -34.07,16.7 -13.81,0 -16.26,-10.02 -16.26,-31.17l0 -66.36 -21.6 2.45 2.89 20.48 0 65.7c0,17.81 14.47,26.26 29.18,26.26 14.7,0 32.73,-8.23 41.42,-19.38zm141.07 -90.18c-4.01,-4.23 -8.9,-6.23 -14.02,-6.23 -20.27,0 -30.51,17.81 -34.74,25.38l0 -24.49 -21.6 2.45 2.9 20.48 0 89.07 20.93 0 -2.23 -16.7 0 -40.08c0,-19.82 15.59,-36.3 29.84,-36.3 3.12,0 7.79,1.56 11.36,4.67l7.57 -18.26zm96.88 12.24l13.58 0 0 94.43 20.94 0 -2.23 -22.93 0 -71.49 24.5 0 6.67 -15.13 -31.17 0 0 -20.27c0,-13.58 6.91,-20.49 15.82,-20.49 5.34,0 10.91,2.45 16.02,6.68l7.35 -16.71c-8.02,-4.67 -17.14,-7.57 -25.61,-7.57 -17.15,0 -32.29,11.36 -32.29,42.09l0 16.26 -13.58 0 0 15.13zm169.8 77.94c0,10.25 6.46,19.38 6.46,19.38l20.72 -2.89c0,0 -10.03,-11.8 -10.03,-25.16l0 -86.85 -21.6 2.45 2.89 20.48 0 57.9c0,0 -10.68,16.7 -34.07,16.7 -13.81,0 -16.26,-10.02 -16.26,-31.17l0 -66.36 -21.6 2.45 2.89 20.48 0 65.7c0,17.81 14.47,26.26 29.18,26.26 14.7,0 32.73,-8.23 41.42,-19.38zm95.65 -115.57l-20.93 2.46 0 20.04 -13.58 0 0 15.13 13.58 0 0 63.48c0,24.49 12.02,33.84 26.5,33.84 10.24,0 22.05,-2.44 31.63,-10.02l-3.12 -16.93c-5.79,5.57 -15.59,9.13 -24.05,9.13 -6.91,0 -12.25,-3.78 -12.25,-14.26l0 -65.25 27.39 0 6.68 -15.13 -34.08 0 2.22 -22.5zm144.19 115.57c0,10.25 6.46,19.38 6.46,19.38l20.72 -2.89c0,0 -10.03,-11.8 -10.03,-25.16l0 -86.85 -21.6 2.45 2.89 20.48 0 57.9c0,0 -10.68,16.7 -34.07,16.7 -13.81,0 -16.26,-10.02 -16.26,-31.17l0 -66.36 -21.6 2.45 2.89 20.48 0 65.7c0,17.81 14.47,26.26 29.18,26.26 14.7,0 32.73,-8.23 41.42,-19.38zm141.07 -90.18c-4.01,-4.23 -8.9,-6.23 -14.02,-6.23 -20.27,0 -30.51,17.81 -34.74,25.38l0 -24.49 -21.6 2.45 2.9 20.48 0 89.07 20.93 0 -2.23 -16.7 0 -40.08c0,-19.82 15.59,-36.3 29.84,-36.3 3.12,0 7.79,1.56 11.36,4.67l7.57 -18.26zm71.38 -6.23c-34.08,0 -49.23,28.72 -49.23,60.12 0,27.62 16.7,55.67 45.87,55.67 27.62,0 43.43,-15.36 43.43,-15.36l-3.13 -16.93c0,0 -16.02,15.14 -34.96,15.14 -21.6,0 -30.96,-20.49 -31.4,-40.53l62.13 0 5.12 -5.79c-0.44,-13.8 -3.12,-52.32 -37.85,-52.32zm-2.68 14.47c15.37,0 19.59,17.81 20.26,29.39l-45.87 0c3.11,-16.03 10.46,-29.39 25.61,-29.39z"></path>  <path class="fil0 str0" d="M1621.2 8.63c719.57,0 1328.95,492.21 1536.51,1171.72 -234.38,50.37 -410.63,267.03 -410.63,526.68 0,256.52 172,471.03 402.17,524.74 -215.33,665.41 -818.12,1144.5 -1528.05,1144.5 -890.59,0 -1612.55,-753.87 -1612.55,-1683.82 0,-929.95 721.96,-1683.82 1612.55,-1683.82zm-295.87 1547l150.54 413.64 -301.3 -140.5 -151.09 -415.12 301.85 141.98zm-142.12 296.86l301.3 140.51 113.86 312.81 -727.43 -337.98 193.72 532.24 -301.31 -140.5 -273.58 -751.66 301.85 141.98 78.77 216.46 312.82 -113.86zm862.59 -305.56l416.56 194.25 -140.5 301.31 -593.02 215.84 140.5 -301.31 280.21 -101.98 -416.57 -194.25 312.82 -113.86 0 0zm0 0l-82.03 -225.35 -312.81 113.86 140.5 -301.31 312.82 -113.86 81.48 223.87 -139.96 302.79zm-536.29 191.84l141.45 -303.33 82.02 225.35 111.16 305.41 -141.99 301.85 -192.64 -529.27z"></path>  <path class="fil1" d="M6808.35 1519.68l-39.23 -52.06c15.12,-7.09 24.5,-21.05 24.5,-35.99 0,-25.83 -20.3,-37.9 -41.35,-37.9l-35.6 0 2.49 17.61 0 108.33 19.14 0 -1.91 -14.36 0 -32.72c11.29,0 13.98,0 16.08,-0.2l33.68 47.28 22.2 0zm-71.96 -61.25l0 -50.53 12.45 0c14.16,0 26.6,8.05 26.6,23.74 0,14.54 -12.44,26.79 -26.6,26.79l-12.45 0z"></path>  <g>   <path class="fil1" d="M6878.55 1456.71l-11.92 0 0 0 -0.15 -5.36 -0.39 -5.29 -0.66 -5.2 -0.92 -5.12 -1.17 -5.03 -1.4 -4.94 -1.64 -4.83 -1.86 -4.73 -2.09 -4.61 -2.29 -4.49 -2.51 -4.36 -2.7 -4.22 -2.89 -4.07 -3.1 -3.94 -3.28 -3.78 -3.44 -3.62 -3.63 -3.45 -3.76 -3.26 -3.94 -3.09 -4.09 -2.91 -4.22 -2.7 -4.36 -2.51 -4.48 -2.29 -4.62 -2.08 -4.73 -1.88 -4.83 -1.63 -4.93 -1.4 -5.05 -1.17 -5.12 -0.91 -5.21 -0.67 -5.29 -0.39 -5.36 -0.15 0 -11.96 5.97 0.15 5.88 0.45 5.8 0.73 5.72 1.03 5.62 1.3 5.5 1.56 5.4 1.82 5.26 2.08 5.15 2.31 5.01 2.57 4.85 2.8 4.71 3.02 4.54 3.22 4.39 3.44 4.21 3.66 4.02 3.84 3.85 4.03 3.64 4.21 3.45 4.37 3.24 4.56 3.02 4.71 2.78 4.85 2.57 5 2.32 5.15 2.08 5.26 1.83 5.4 1.56 5.51 1.3 5.62 1.02 5.72 0.74 5.81 0.45 5.88 0.15 5.97 0 0zm-116.03 116.04l0 -11.96 0 0 5.36 -0.15 5.29 -0.39 5.21 -0.67 5.12 -0.91 5.05 -1.17 4.93 -1.4 4.83 -1.63 4.73 -1.88 4.62 -2.08 4.48 -2.29 4.36 -2.51 4.22 -2.7 4.08 -2.9 3.94 -3.1 3.78 -3.28 3.62 -3.44 3.44 -3.61 3.28 -3.78 3.09 -3.93 2.9 -4.09 2.7 -4.21 2.51 -4.37 2.29 -4.49 2.09 -4.61 1.86 -4.72 1.64 -4.83 1.4 -4.94 1.17 -5.03 0.92 -5.13 0.66 -5.2 0.39 -5.29 0.15 -5.36 11.92 0 -0.15 5.97 -0.45 5.88 -0.74 5.81 -1.02 5.73 -1.3 5.62 -1.56 5.51 -1.83 5.4 -2.08 5.27 -2.32 5.14 -2.57 5 -2.78 4.86 -3.02 4.7 -3.23 4.56 -3.46 4.38 -3.64 4.21 -3.85 4.04 -4.03 3.83 -4.19 3.64 -4.39 3.45 -4.55 3.23 -4.71 3.02 -4.85 2.8 -5.01 2.57 -5.15 2.31 -5.26 2.08 -5.4 1.82 -5.5 1.56 -5.62 1.3 -5.72 1.03 -5.8 0.73 -5.88 0.45 -5.97 0.15 0 0zm-116.03 -116.04l11.92 0 0 0 0.15 5.36 0.39 5.29 0.66 5.2 0.92 5.13 1.17 5.03 1.4 4.95 1.63 4.82 1.87 4.72 2.08 4.62 2.29 4.48 2.51 4.36 2.71 4.22 2.9 4.09 3.09 3.93 3.28 3.78 3.43 3.62 3.62 3.43 3.79 3.28 3.93 3.1 4.09 2.9 4.21 2.7 4.37 2.51 4.48 2.3 4.61 2.08 4.73 1.87 4.83 1.63 4.94 1.4 5.04 1.17 5.13 0.91 5.21 0.67 5.29 0.39 5.36 0.15 0 11.96 -5.97 -0.15 -5.88 -0.45 -5.8 -0.73 -5.73 -1.03 -5.61 -1.3 -5.51 -1.56 -5.4 -1.82 -5.26 -2.09 -5.14 -2.31 -5.01 -2.56 -4.86 -2.8 -4.7 -3.02 -4.56 -3.23 -4.38 -3.45 -4.2 -3.64 -4.03 -3.84 -3.84 -4.03 -3.64 -4.21 -3.46 -4.38 -3.23 -4.56 -3.01 -4.69 -2.8 -4.87 -2.57 -5.01 -2.31 -5.13 -2.09 -5.27 -1.82 -5.41 -1.56 -5.5 -1.3 -5.62 -1.02 -5.73 -0.74 -5.81 -0.45 -5.88 -0.15 -5.97 0 0zm116.03 -116.03l0 11.96 0 0 -5.36 0.15 -5.29 0.39 -5.21 0.67 -5.13 0.91 -5.04 1.17 -4.94 1.4 -4.83 1.63 -4.73 1.87 -4.61 2.08 -4.48 2.3 -4.37 2.51 -4.21 2.7 -4.1 2.91 -3.93 3.09 -3.78 3.26 -3.61 3.45 -3.44 3.62 -3.28 3.78 -3.1 3.94 -2.89 4.07 -2.71 4.23 -2.51 4.35 -2.29 4.48 -2.08 4.62 -1.87 4.73 -1.63 4.82 -1.4 4.95 -1.17 5.03 -0.92 5.12 -0.66 5.2 -0.39 5.29 -0.15 5.36 -11.92 0 0.15 -5.97 0.45 -5.88 0.74 -5.81 1.02 -5.72 1.3 -5.62 1.56 -5.5 1.82 -5.41 2.09 -5.26 2.31 -5.15 2.57 -5.01 2.8 -4.86 3.01 -4.7 3.24 -4.56 3.45 -4.37 3.64 -4.21 3.83 -4.03 4.04 -3.84 4.21 -3.66 4.38 -3.44 4.55 -3.22 4.7 -3.02 4.86 -2.8 5.01 -2.56 5.14 -2.31 5.26 -2.09 5.4 -1.82 5.51 -1.56 5.61 -1.3 5.73 -1.03 5.8 -0.73 5.88 -0.45 5.97 -0.15 0 0z"></path>  </g> </g></svg>